<svg xmlns="http://www.w3.org/2000/svg" width="254.07" height="35" viewBox="0 0 254.07 35"><rect class="svg__rect" x="0" y="0" width="137.07" height="35" fill="#31C4F3"/><rect class="svg__rect" x="135.07" y="0" width="119" height="35" fill="#389AD5"/><path class="svg__text" d="M15.00 22L13.46 22L16.68 13.47L18.01 13.47L21.24 22L19.69 22L18.99 20.01L15.69 20.01L15.00 22ZM17.34 15.28L16.10 18.82L18.58 18.82L17.34 15.28ZM26.67 22L25.19 22L25.19 13.47L28.46 13.47Q29.89 13.47 30.73 14.21Q31.57 14.96 31.57 16.18L31.57 16.18Q31.57 17.44 30.74 18.13Q29.92 18.83 28.44 18.83L28.44 18.83L26.67 18.83L26.67 22ZM26.67 14.66L26.67 17.64L28.46 17.64Q29.25 17.64 29.66 17.27Q30.08 16.90 30.08 16.19L30.08 16.19Q30.08 15.50 29.66 15.09Q29.23 14.68 28.50 14.66L28.50 14.66L26.67 14.66ZM37.33 22L35.85 22L35.85 13.47L39.11 13.47Q40.54 13.47 41.38 14.21Q42.23 14.96 42.23 16.18L42.23 16.18Q42.23 17.44 41.40 18.13Q40.58 18.83 39.10 18.83L39.10 18.83L37.33 18.83L37.33 22ZM37.33 14.66L37.33 17.64L39.11 17.64Q39.90 17.64 40.32 17.27Q40.74 16.90 40.74 16.19L40.74 16.19Q40.74 15.50 40.31 15.09Q39.89 14.68 39.15 14.66L39.15 14.66L37.33 14.66ZM47.99 22L46.51 22L46.51 13.47L49.51 13.47Q50.98 13.47 51.79 14.13Q52.59 14.79 52.59 16.05L52.59 16.05Q52.59 16.90 52.18 17.48Q51.76 18.06 51.03 18.37L51.03 18.37L52.94 21.92L52.94 22L51.35 22L49.64 18.71L47.99 18.71L47.99 22ZM47.99 14.66L47.99 17.52L49.51 17.52Q50.26 17.52 50.69 17.15Q51.11 16.77 51.11 16.11L51.11 16.11Q51.11 15.43 50.72 15.05Q50.33 14.68 49.56 14.66L49.56 14.66L47.99 14.66ZM56.72 18.00L56.72 18.00L56.72 17.52Q56.72 16.28 57.16 15.32Q57.60 14.37 58.41 13.86Q59.21 13.35 60.25 13.35Q61.30 13.35 62.10 13.85Q62.91 14.35 63.35 15.29Q63.79 16.23 63.79 17.48L63.79 17.48L63.79 17.96Q63.79 19.21 63.36 20.16Q62.93 21.10 62.12 21.61Q61.31 22.12 60.27 22.12L60.27 22.12Q59.23 22.12 58.42 21.61Q57.61 21.10 57.16 20.17Q56.72 19.23 56.72 18.00ZM58.20 17.46L58.20 17.96Q58.20 19.36 58.75 20.13Q59.29 20.90 60.27 20.90L60.27 20.90Q61.25 20.90 61.78 20.15Q62.31 19.40 62.31 17.96L62.31 17.96L62.31 17.51Q62.31 16.09 61.77 15.34Q61.24 14.58 60.25 14.58L60.25 14.58Q59.29 14.58 58.75 15.33Q58.21 16.09 58.20 17.46L58.20 17.46ZM70.56 22L67.50 13.47L69.12 13.47L71.26 20.14L73.43 13.47L75.06 13.47L71.99 22L70.56 22ZM84.59 22L79.01 22L79.01 13.47L84.55 13.47L84.55 14.66L80.49 14.66L80.49 17.02L84.00 17.02L84.00 18.19L80.49 18.19L80.49 20.82L84.59 20.82L84.59 22ZM91.24 22L88.78 22L88.78 13.47L91.30 13.47Q92.43 13.47 93.31 13.97Q94.19 14.48 94.67 15.40Q95.15 16.33 95.15 17.52L95.15 17.52L95.15 17.95Q95.15 19.16 94.66 20.08Q94.18 21.00 93.29 21.50Q92.39 22 91.24 22L91.24 22ZM90.27 14.66L90.27 20.82L91.23 20.82Q92.40 20.82 93.02 20.09Q93.65 19.36 93.66 17.99L93.66 17.99L93.66 17.52Q93.66 16.13 93.06 15.40Q92.45 14.66 91.30 14.66L91.30 14.66L90.27 14.66ZM108.70 22L105.59 22L105.59 13.47L108.51 13.47Q109.96 13.47 110.72 14.05Q111.47 14.63 111.47 15.78L111.47 15.78Q111.47 16.36 111.15 16.83Q110.84 17.30 110.23 17.56L110.23 17.56Q110.92 17.75 111.30 18.26Q111.68 18.78 111.68 19.51L111.68 19.51Q111.68 20.71 110.91 21.36Q110.14 22 108.70 22L108.70 22ZM107.07 18.15L107.07 20.82L108.72 20.82Q109.41 20.82 109.81 20.47Q110.20 20.13 110.20 19.51L110.20 19.51Q110.20 18.18 108.84 18.15L108.84 18.15L107.07 18.15ZM107.07 14.66L107.07 17.06L108.52 17.06Q109.22 17.06 109.60 16.75Q109.99 16.43 109.99 15.86L109.99 15.86Q109.99 15.23 109.63 14.95Q109.27 14.66 108.51 14.66L108.51 14.66L107.07 14.66ZM118.19 18.86L115.32 13.47L116.97 13.47L118.93 17.51L120.89 13.47L122.53 13.47L119.67 18.86L119.67 22L118.19 22L118.19 18.86Z" fill="#FFFFFF"/><path class="svg__text" d="M153.23 22L149.26 22L149.26 13.60L153.23 13.60Q154.61 13.60 155.68 14.12Q156.75 14.63 157.34 15.58Q157.92 16.53 157.92 17.80L157.92 17.80Q157.92 19.07 157.34 20.02Q156.75 20.97 155.68 21.48Q154.61 22 153.23 22L153.23 22ZM151.64 15.50L151.64 20.10L153.14 20.10Q154.21 20.10 154.87 19.49Q155.52 18.88 155.52 17.80L155.52 17.80Q155.52 16.72 154.87 16.11Q154.21 15.50 153.14 15.50L153.14 15.50L151.64 15.50ZM162.58 18.26L162.58 18.26L162.58 13.60L164.96 13.60L164.96 18.19Q164.96 20.20 166.55 20.20L166.55 20.20Q168.14 20.20 168.14 18.19L168.14 18.19L168.14 13.60L170.48 13.60L170.48 18.26Q170.48 20.13 169.44 21.15Q168.40 22.17 166.53 22.17L166.53 22.17Q164.66 22.17 163.62 21.15Q162.58 20.13 162.58 18.26ZM175.14 17.80L175.14 17.80Q175.14 16.54 175.74 15.54Q176.33 14.55 177.39 13.99Q178.44 13.43 179.76 13.43L179.76 13.43Q180.91 13.43 181.83 13.84Q182.76 14.25 183.37 15.02L183.37 15.02L181.86 16.39Q181.04 15.40 179.88 15.40L179.88 15.40Q179.19 15.40 178.66 15.70Q178.13 16 177.83 16.54Q177.54 17.09 177.54 17.80L177.54 17.80Q177.54 18.51 177.83 19.05Q178.13 19.60 178.66 19.90Q179.19 20.20 179.88 20.20L179.88 20.20Q181.04 20.20 181.86 19.22L181.86 19.22L183.37 20.58Q182.76 21.35 181.84 21.76Q180.91 22.17 179.76 22.17L179.76 22.17Q178.44 22.17 177.39 21.61Q176.33 21.05 175.74 20.05Q175.14 19.06 175.14 17.80ZM198.85 22L194.88 22L194.88 13.60L198.85 13.60Q200.23 13.60 201.30 14.12Q202.37 14.63 202.96 15.58Q203.54 16.53 203.54 17.80L203.54 17.80Q203.54 19.07 202.96 20.02Q202.37 20.97 201.30 21.48Q200.23 22 198.85 22L198.85 22ZM197.26 15.50L197.26 20.10L198.76 20.10Q199.84 20.10 200.49 19.49Q201.14 18.88 201.14 17.80L201.14 17.80Q201.14 16.72 200.49 16.11Q199.84 15.50 198.76 15.50L198.76 15.50L197.26 15.50ZM209.69 22L207.27 22L210.97 13.60L213.32 13.60L217.03 22L214.57 22L213.90 20.37L210.35 20.37L209.69 22ZM212.13 15.93L211.04 18.61L213.21 18.61L212.13 15.93ZM223.52 22L221.19 22L221.19 13.60L223.14 13.60L226.85 18.07L226.85 13.60L229.18 13.60L229.18 22L227.23 22L223.52 17.52L223.52 22ZM233.91 17.80L233.91 17.80Q233.91 16.54 234.51 15.54Q235.11 14.55 236.18 13.99Q237.25 13.43 238.59 13.43L238.59 13.43Q239.77 13.43 240.71 13.83Q241.64 14.22 242.26 14.97L242.26 14.97L240.75 16.33Q239.91 15.40 238.73 15.40L238.73 15.40Q238.72 15.40 238.71 15.40L238.71 15.40Q237.63 15.40 236.97 16.06Q236.31 16.71 236.31 17.80L236.31 17.80Q236.31 18.50 236.61 19.04Q236.91 19.59 237.45 19.89Q237.99 20.20 238.69 20.20L238.69 20.20Q239.38 20.20 239.97 19.93L239.97 19.93L239.97 17.62L242.07 17.62L242.07 21.10Q241.35 21.61 240.42 21.89Q239.48 22.17 238.54 22.17L238.54 22.17Q237.22 22.17 236.17 21.61Q235.11 21.05 234.51 20.05Q233.91 19.06 233.91 17.80Z" fill="#FFFFFF" x="148.07"/></svg>